<mxfile host="drawio-plugin" modified="2024-01-21T15:54:38.714Z" agent="5.0 (Android 6.0)" etag="UAuPw85otW4Xzb5sd5Gg" version="20.5.3" type="embed"><diagram name="第 1 页" id="awphx5rW_arG6idFkpRx"><mxGraphModel dx="1421" dy="1169" grid="1" gridSize="10" guides="1" tooltips="1" connect="1" arrows="1" fold="1" page="0" pageScale="1" pageWidth="827" pageHeight="1169" math="0" shadow="0"><root><mxCell id="0"/><mxCell id="1" parent="0"/><mxCell id="S91bDU7r1PO26V9IDOad-103" value="" style="group;fontSize=20;fillColor=#f5f5f5;strokeColor=#666666;fontColor=#333333;" parent="1" vertex="1" connectable="0"><mxGeometry x="-80" y="-400" width="320" height="320" as="geometry"/></mxCell><mxCell id="S91bDU7r1PO26V9IDOad-82" value="" style="group;fontSize=20;" parent="S91bDU7r1PO26V9IDOad-103" vertex="1" connectable="0"><mxGeometry width="320" height="80" as="geometry"/></mxCell><mxCell id="S91bDU7r1PO26V9IDOad-76" value="4" style="whiteSpace=wrap;html=1;aspect=fixed;fontSize=20;" parent="S91bDU7r1PO26V9IDOad-82" vertex="1"><mxGeometry x="240" width="80" height="80" as="geometry"/></mxCell><mxCell id="S91bDU7r1PO26V9IDOad-77" value="3" style="whiteSpace=wrap;html=1;aspect=fixed;fontSize=20;" parent="S91bDU7r1PO26V9IDOad-82" vertex="1"><mxGeometry x="160" width="80" height="80" as="geometry"/></mxCell><mxCell id="S91bDU7r1PO26V9IDOad-78" value="2" style="whiteSpace=wrap;html=1;aspect=fixed;fontSize=20;" parent="S91bDU7r1PO26V9IDOad-82" vertex="1"><mxGeometry x="80" width="80" height="80" as="geometry"/></mxCell><mxCell id="S91bDU7r1PO26V9IDOad-79" value="1" style="whiteSpace=wrap;html=1;aspect=fixed;fontSize=20;" parent="S91bDU7r1PO26V9IDOad-82" vertex="1"><mxGeometry width="80" height="80" as="geometry"/></mxCell><mxCell id="S91bDU7r1PO26V9IDOad-83" value="" style="group;fontSize=20;fillColor=#fff2cc;strokeColor=#d6b656;" parent="S91bDU7r1PO26V9IDOad-103" vertex="1" connectable="0"><mxGeometry y="80" width="320" height="80" as="geometry"/></mxCell><mxCell id="S91bDU7r1PO26V9IDOad-84" value="4" style="whiteSpace=wrap;html=1;aspect=fixed;fontSize=20;" parent="S91bDU7r1PO26V9IDOad-83" vertex="1"><mxGeometry x="240" width="80" height="80" as="geometry"/></mxCell><mxCell id="S91bDU7r1PO26V9IDOad-85" value="3" style="whiteSpace=wrap;html=1;aspect=fixed;fontSize=20;fillColor=#f5f5f5;strokeColor=#666666;fontColor=#333333;" parent="S91bDU7r1PO26V9IDOad-83" vertex="1"><mxGeometry x="160" width="80" height="80" as="geometry"/></mxCell><mxCell id="S91bDU7r1PO26V9IDOad-86" value="2" style="whiteSpace=wrap;html=1;aspect=fixed;fontSize=20;" parent="S91bDU7r1PO26V9IDOad-83" vertex="1"><mxGeometry x="80" width="80" height="80" as="geometry"/></mxCell><mxCell id="S91bDU7r1PO26V9IDOad-87" value="1" style="whiteSpace=wrap;html=1;aspect=fixed;fontSize=20;fillColor=#f5f5f5;strokeColor=#666666;fontColor=#333333;" parent="S91bDU7r1PO26V9IDOad-83" vertex="1"><mxGeometry width="80" height="80" as="geometry"/></mxCell><mxCell id="S91bDU7r1PO26V9IDOad-93" value="" style="group;fontSize=20;fillColor=#f5f5f5;strokeColor=#666666;fontColor=#333333;" parent="S91bDU7r1PO26V9IDOad-103" vertex="1" connectable="0"><mxGeometry y="160" width="320" height="80" as="geometry"/></mxCell><mxCell id="S91bDU7r1PO26V9IDOad-94" value="4" style="whiteSpace=wrap;html=1;aspect=fixed;fontSize=20;" parent="S91bDU7r1PO26V9IDOad-93" vertex="1"><mxGeometry x="240" width="80" height="80" as="geometry"/></mxCell><mxCell id="S91bDU7r1PO26V9IDOad-95" value="3" style="whiteSpace=wrap;html=1;aspect=fixed;fontSize=20;" parent="S91bDU7r1PO26V9IDOad-93" vertex="1"><mxGeometry x="160" width="80" height="80" as="geometry"/></mxCell><mxCell id="S91bDU7r1PO26V9IDOad-96" value="2" style="whiteSpace=wrap;html=1;aspect=fixed;fontSize=20;fillColor=#f5f5f5;strokeColor=#666666;fontColor=#333333;" parent="S91bDU7r1PO26V9IDOad-93" vertex="1"><mxGeometry x="80" width="80" height="80" as="geometry"/></mxCell><mxCell id="S91bDU7r1PO26V9IDOad-97" value="1" style="whiteSpace=wrap;html=1;aspect=fixed;fontSize=20;" parent="S91bDU7r1PO26V9IDOad-93" vertex="1"><mxGeometry width="80" height="80" as="geometry"/></mxCell><mxCell id="S91bDU7r1PO26V9IDOad-98" value="" style="group;fontSize=20;" parent="S91bDU7r1PO26V9IDOad-103" vertex="1" connectable="0"><mxGeometry y="240" width="320" height="80" as="geometry"/></mxCell><mxCell id="S91bDU7r1PO26V9IDOad-99" value="4" style="whiteSpace=wrap;html=1;aspect=fixed;fontSize=20;" parent="S91bDU7r1PO26V9IDOad-98" vertex="1"><mxGeometry x="240" width="80" height="80" as="geometry"/></mxCell><mxCell id="S91bDU7r1PO26V9IDOad-100" value="3" style="whiteSpace=wrap;html=1;aspect=fixed;fontSize=20;" parent="S91bDU7r1PO26V9IDOad-98" vertex="1"><mxGeometry x="160" width="80" height="80" as="geometry"/></mxCell><mxCell id="S91bDU7r1PO26V9IDOad-101" value="2" style="whiteSpace=wrap;html=1;aspect=fixed;fontSize=20;" parent="S91bDU7r1PO26V9IDOad-98" vertex="1"><mxGeometry x="80" width="80" height="80" as="geometry"/></mxCell><mxCell id="S91bDU7r1PO26V9IDOad-102" value="1" style="whiteSpace=wrap;html=1;aspect=fixed;fontSize=20;" parent="S91bDU7r1PO26V9IDOad-98" vertex="1"><mxGeometry width="80" height="80" as="geometry"/></mxCell><mxCell id="S91bDU7r1PO26V9IDOad-105" value="" style="endArrow=classic;html=1;rounded=0;entryX=0;entryY=0.5;entryDx=0;entryDy=0;" parent="1" target="S91bDU7r1PO26V9IDOad-79" edge="1"><mxGeometry width="50" height="50" relative="1" as="geometry"><mxPoint x="-250" y="-360" as="sourcePoint"/><mxPoint x="-190" y="-390" as="targetPoint"/></mxGeometry></mxCell><mxCell id="S91bDU7r1PO26V9IDOad-106" value="ROW 0" style="text;html=1;align=center;verticalAlign=middle;resizable=0;points=[];autosize=1;strokeColor=none;fillColor=none;" parent="1" vertex="1"><mxGeometry x="-210" y="-382" width="60" height="30" as="geometry"/></mxCell></root></mxGraphModel></diagram></mxfile>